<?xml version="1.0" encoding="UTF-8" standalone="no"?>
<!-- Created with Inkscape (http://www.inkscape.org/) -->

<svg
   width="16"
   height="16"
   viewBox="0 0 4.2333332 4.2333333"
   version="1.1"
   id="svg5"
   inkscape:version="1.2.2 (732a01da63, 2022-12-09)"
   sodipodi:docname="Favicon.svg"
   xmlns:inkscape="http://www.inkscape.org/namespaces/inkscape"
   xmlns:sodipodi="http://sodipodi.sourceforge.net/DTD/sodipodi-0.dtd"
   xmlns="http://www.w3.org/2000/svg"
   xmlns:svg="http://www.w3.org/2000/svg">
  <sodipodi:namedview
     id="namedview7"
     pagecolor="#ffffff"
     bordercolor="#000000"
     borderopacity="0.25"
     inkscape:showpageshadow="2"
     inkscape:pageopacity="0.0"
     inkscape:pagecheckerboard="0"
     inkscape:deskcolor="#d1d1d1"
     inkscape:document-units="px"
     showgrid="false"
     inkscape:zoom="26.231823"
     inkscape:cx="8.7489155"
     inkscape:cy="8.5773681"
     inkscape:window-width="1280"
     inkscape:window-height="738"
     inkscape:window-x="-8"
     inkscape:window-y="-8"
     inkscape:window-maximized="1"
     inkscape:current-layer="layer1">
    <inkscape:grid
       type="xygrid"
       id="grid161" />
  </sodipodi:namedview>
  <defs
     id="defs2" />
  <g
     inkscape:label="Layer 1"
     inkscape:groupmode="layer"
     id="layer1">
    <path
       id="rect219"
       style="fill:#000000;stroke-width:1;stroke-linecap:round;stroke-linejoin:round"
       d="M 1.2345499 0 L 1.2345499 1.2345499 L 0 1.2345499 L 0 1.4991333 L 1.2345499 1.4991333 L 1.2345499 2.7342 L 0 2.7342 L 0 2.9987833 L 1.2345499 2.9987833 L 1.2345499 4.2333332 L 1.4991333 4.2333332 L 1.4991333 2.9987833 L 2.7342 2.9987833 L 2.7342 4.2333332 L 2.9987833 4.2333332 L 2.9987833 2.9987833 L 4.2333332 2.9987833 L 4.2333332 2.7342 L 2.9987833 2.7342 L 2.9987833 1.4991333 L 4.2333332 1.4991333 L 4.2333332 1.2345499 L 2.9987833 1.2345499 L 2.9987833 0 L 2.7342 0 L 2.7342 1.2345499 L 1.4991333 1.2345499 L 1.4991333 0 L 1.2345499 0 z M 1.4991333 1.4991333 L 2.7342 1.4991333 L 2.7342 2.7342 L 1.4991333 2.7342 L 1.4991333 1.4991333 z " />
    <path
       id="rect540"
       style="fill:#007bff;stroke-width:0.999995;stroke-linecap:round;stroke-linejoin:round;fill-opacity:1"
       d="M 0.96060507,0.08701645 0.61748738,0.43013414 0.27400429,0.08665104 0.08691562,0.27373971 0.43039871,0.6172228 0.08691567,0.96070585 0.27400433,1.1477945 0.61748738,0.80431147 0.96060509,1.1474292 1.1476937,0.96034051 0.80457605,0.6172228 1.1476937,0.27410511 Z" />
    <path
       style="color:#000000;fill:#ff2c2c;stroke-linecap:round;stroke-linejoin:round;-inkscape-stroke:none;fill-opacity:1"
       d="m 2.1171875,0.0859375 c -0.2913885,0 -0.53125,0.23981039 -0.53125,0.53125 0,0.29143961 0.2398615,0.53125 0.53125,0.53125 0.2913885,0 0.5292969,-0.23981039 0.5292969,-0.53125 0,-0.29143961 -0.2379084,-0.53125 -0.5292969,-0.53125 z m 0,0.265625 c 0.1483022,0 0.265625,0.11708148 0.265625,0.265625 0,0.14854352 -0.1173228,0.265625 -0.265625,0.265625 -0.1483022,0 -0.265625,-0.11708148 -0.265625,-0.265625 0,-0.14854352 0.1173228,-0.265625 0.265625,-0.265625 z"
       id="path545" />
    <path
       id="path1101"
       style="fill:#007bff;stroke-width:0.999995;stroke-linecap:round;stroke-linejoin:round;fill-opacity:1"
       d="M 3.9595249,0.08714874 3.6164072,0.43026643 3.2729241,0.08678333 3.0858354,0.273872 3.4293185,0.61735509 3.0858355,0.96083814 3.2729241,1.1479268 3.6164072,0.80444376 3.9595249,1.1475615 4.1466135,0.9604728 3.8034958,0.61735509 4.1466135,0.2742374 Z" />
    <path
       id="path1161"
       style="fill:#007bff;stroke-width:0.999995;stroke-linecap:round;stroke-linejoin:round;fill-opacity:1"
       d="M 0.96060507,3.0857218 0.61748738,3.4288394 0.27400429,3.0853563 0.08691562,3.272445 0.43039871,3.6159281 0.08691567,3.9594112 0.27400433,4.1464998 0.61748738,3.8030168 0.96060509,4.1461345 1.1476937,3.9590458 0.80457605,3.6159281 1.1476937,3.2728104 Z" />
    <path
       style="color:#000000;fill:#ff2c2c;stroke-linecap:round;stroke-linejoin:round;-inkscape-stroke:none;fill-opacity:1"
       d="m 2.1171875,3.0859375 c -0.2913885,0 -0.53125,0.2378573 -0.53125,0.5292969 0,0.2914396 0.2398615,0.53125 0.53125,0.53125 0.2913885,0 0.5292969,-0.2398104 0.5292969,-0.53125 0,-0.2914396 -0.2379084,-0.5292969 -0.5292969,-0.5292969 z m 0,0.2636719 c 0.1483022,0 0.265625,0.1170815 0.265625,0.265625 0,0.1485435 -0.1173228,0.2675781 -0.265625,0.2675781 -0.1483022,0 -0.265625,-0.1190346 -0.265625,-0.2675781 0,-0.1485435 0.1173228,-0.265625 0.265625,-0.265625 z"
       id="ellipse1163" />
    <path
       id="path1165"
       style="fill:#007bff;stroke-width:0.999995;stroke-linecap:round;stroke-linejoin:round;fill-opacity:1"
       d="M 3.9595249,3.085854 3.6164072,3.4289717 3.2729241,3.0854886 3.0858354,3.2725773 3.4293185,3.6160604 3.0858355,3.9595434 3.2729241,4.1466321 3.6164072,3.8031491 3.9595249,4.1462668 4.1466135,3.9591781 3.8034958,3.6160604 4.1466135,3.2729427 Z" />
    <path
       style="color:#000000;fill:#ff2c2c;stroke-linecap:round;stroke-linejoin:round;-inkscape-stroke:none;fill-opacity:1"
       d="m 3.6171875,1.5859375 c -0.2913885,0 -0.53125,0.2398104 -0.53125,0.53125 0,0.2914396 0.2398615,0.5292969 0.53125,0.5292969 0.2913885,0 0.5292969,-0.2378573 0.5292969,-0.5292969 0,-0.2914396 -0.2379084,-0.53125 -0.5292969,-0.53125 z m 0,0.265625 c 0.1483022,0 0.265625,0.1170815 0.265625,0.265625 0,0.1485435 -0.1173228,0.265625 -0.265625,0.265625 -0.1483022,0 -0.2675781,-0.1170815 -0.2675781,-0.265625 0,-0.1485435 0.1192759,-0.265625 0.2675781,-0.265625 z"
       id="ellipse1180" />
    <path
       style="color:#000000;fill:#ff2c2c;stroke-linecap:round;stroke-linejoin:round;-inkscape-stroke:none;fill-opacity:1"
       d="m 0.6171875,1.5859375 c -0.29138846,0 -0.52929688,0.2398104 -0.52929688,0.53125 10e-9,0.2914396 0.23790842,0.5292969 0.52929688,0.5292969 0.29138846,0 0.53125,-0.2378573 0.53125,-0.5292969 0,-0.2914396 -0.23986154,-0.53125 -0.53125,-0.53125 z m 0,0.2636719 c 0.14830225,0 0.265625,0.1190346 0.265625,0.2675781 0,0.1485435 -0.11732275,0.265625 -0.265625,0.265625 -0.14830225,0 -0.265625,-0.1170815 -0.265625,-0.265625 0,-0.1485435 0.11732275,-0.2675781 0.265625,-0.2675781 z"
       id="ellipse1182" />
    <path
       id="path1184"
       style="fill:#007bff;stroke-width:0.999995;stroke-linecap:round;stroke-linejoin:round;fill-opacity:1"
       d="M 2.4600651,1.5863691 2.1169474,1.9294868 1.7734643,1.5860037 1.5863756,1.7730924 1.9298587,2.1165755 1.5863757,2.4600585 1.7734643,2.6471472 2.1169474,2.3036642 2.4600651,2.6467819 2.6471537,2.4596932 2.304036,2.1165755 2.6471537,1.7734578 Z" />
  </g>
</svg>
